<svg width="231" height="106" viewBox="0 0 231 106" fill="none" xmlns="http://www.w3.org/2000/svg">
<path d="M27.517 18V0.545454H34.4034C35.7273 0.545454 36.8551 0.798295 37.7869 1.30398C38.7188 1.80398 39.429 2.5 39.9176 3.39204C40.4119 4.27841 40.6591 5.30114 40.6591 6.46023C40.6591 7.61932 40.4091 8.64205 39.9091 9.52841C39.4091 10.4148 38.6847 11.1051 37.7358 11.5994C36.7926 12.0937 35.6506 12.3409 34.3097 12.3409H29.9205V9.38352H33.7131C34.4233 9.38352 35.0085 9.26136 35.4688 9.01705C35.9347 8.76705 36.2813 8.4233 36.5085 7.9858C36.7415 7.54261 36.858 7.03409 36.858 6.46023C36.858 5.88068 36.7415 5.375 36.5085 4.94318C36.2813 4.50568 35.9347 4.16761 35.4688 3.92898C35.0028 3.68466 34.4119 3.5625 33.696 3.5625H31.2074V18H27.517ZM44.529 18H40.5745L46.6 0.545454H51.3557L57.3728 18H53.4182L49.0461 4.53409H48.9097L44.529 18ZM44.2818 11.1392H53.6228V14.0199H44.2818V11.1392ZM59.9536 18V0.545454H66.84C68.1582 0.545454 69.2832 0.78125 70.215 1.25284C71.1525 1.71875 71.8655 2.38068 72.3542 3.23864C72.8485 4.09091 73.0957 5.09375 73.0957 6.24716C73.0957 7.40625 72.8457 8.40341 72.3457 9.23864C71.8457 10.0682 71.1212 10.7045 70.1724 11.1477C69.2292 11.5909 68.0871 11.8125 66.7462 11.8125H62.1354V8.84659H66.1496C66.8542 8.84659 67.4394 8.75 67.9053 8.55682C68.3712 8.36364 68.7178 8.07386 68.9451 7.6875C69.178 7.30114 69.2945 6.82102 69.2945 6.24716C69.2945 5.66761 69.178 5.17898 68.9451 4.78125C68.7178 4.38352 68.3684 4.08239 67.8968 3.87784C67.4309 3.66761 66.8428 3.5625 66.1326 3.5625H63.6439V18H59.9536ZM69.3797 10.0568L73.7178 18H69.6439L65.3996 10.0568H69.3797ZM75.5188 3.58807V0.545454H89.8541V3.58807H84.5103V18H80.8626V3.58807H75.5188ZM91.6721 0.545454H95.8057L99.7858 8.0625H99.9562L103.936 0.545454H108.07L101.703 11.8295V18H98.0386V11.8295L91.6721 0.545454ZM120.291 0.545454V18H116.6V0.545454H120.291ZM138.406 0.545454V18H135.219L127.625 7.0142H127.497V18H123.807V0.545454H127.045L134.579 11.5227H134.733V0.545454H138.406ZM147.305 3.58807V0.545454H161.64V3.58807H156.297V18H152.649V3.58807H147.305ZM164.481 18V0.545454H168.171V7.74716H175.663V0.545454H179.345V18H175.663V10.7898H168.171V18H164.481ZM182.867 18V0.545454H194.629V3.58807H186.558V7.74716H194.024V10.7898H186.558V14.9574H194.663V18H182.867Z" fill="#EBD175"/>
<path d="M0.511364 105V32.2727H22.919C27.5355 32.2727 31.4891 33.2197 34.7798 35.1136C38.0942 37.0076 40.6392 39.5999 42.4148 42.8906C44.1903 46.1813 45.0781 49.9337 45.0781 54.1477C45.0781 58.3144 44.1903 62.0431 42.4148 65.3338C40.6392 68.6245 38.0942 71.2287 34.7798 73.1463C31.4891 75.0402 27.5473 75.9872 22.9545 75.9872H3.63636V71.8679H22.848C26.5885 71.8679 29.7846 71.1103 32.4361 69.5952C35.0876 68.0563 37.1236 65.9612 38.544 63.3097C39.9645 60.6345 40.6747 57.5805 40.6747 54.1477C40.6747 50.6913 39.9645 47.6255 38.544 44.9503C37.1236 42.2751 35.0758 40.1799 32.4006 38.6648C29.7491 37.1496 26.553 36.392 22.8125 36.392H4.95028V105H0.511364ZM51.9052 105H47.2177L73.4606 32.2727H78.5742L104.817 105H100.13L76.195 37.9901H75.8398L51.9052 105ZM58.5458 77.6207H93.489V81.7401H58.5458V77.6207ZM118.382 105V32.2727H140.79C145.383 32.2727 149.337 33.1723 152.651 34.9716C155.965 36.7708 158.51 39.2685 160.286 42.4645C162.061 45.6368 162.949 49.33 162.949 53.544C162.949 57.7107 162.061 61.3802 160.286 64.5526C158.51 67.7012 155.965 70.1634 152.651 71.9389C149.36 73.7145 145.418 74.6023 140.826 74.6023H120.762V70.4474H140.719C144.46 70.4474 147.656 69.7491 150.307 68.3523C152.959 66.9555 154.995 65.0024 156.415 62.4929C157.836 59.9598 158.546 56.9768 158.546 53.544C158.546 50.0876 157.836 47.081 156.415 44.5241C154.995 41.9437 152.947 39.9432 150.272 38.5227C147.62 37.1023 144.424 36.392 140.684 36.392H122.821V105H118.382ZM148.248 72.0455L166.145 105H161.032L143.24 72.0455H148.248ZM180.687 105V32.2727H185.126V74.4957H185.623L223.975 32.2727H229.87L198.301 66.6832L229.586 105H224.047L195.46 69.8793L185.126 81.3139V105H180.687Z" fill="white"/>
</svg>
