<svg width="32" height="32" viewBox="0 0 32 32" fill="none" xmlns="http://www.w3.org/2000/svg">
<path d="M26.9101 14.7416C26.9101 19.3583 24.1089 23.3207 20.1135 25.022L20.1018 25.2002C20.0726 25.6505 20.0372 26.1942 19.9647 26.7666C24.9261 25.0243 28.4831 20.2983 28.4831 14.7416C28.4831 7.7046 22.7785 2 15.7416 2C8.7046 2 3 7.7046 3 14.7416C3 20.2983 6.55709 25.0243 11.5185 26.7666C11.4459 26.1942 11.4106 25.6505 11.3813 25.2002L11.3697 25.022C7.37422 23.3207 4.57303 19.3583 4.57303 14.7416C4.57303 8.57336 9.57336 3.57303 15.7416 3.57303C21.9098 3.57303 26.9101 8.57336 26.9101 14.7416Z" fill="white"/>
<path d="M22.6629 14.7416C22.6629 16.8025 21.7621 18.6531 20.3328 19.9211L20.3332 19.9303C20.3523 20.3393 20.3493 20.8169 20.3343 21.3164C20.3287 21.5057 20.3212 21.7018 20.3122 21.9027C22.6718 20.3936 24.236 17.7502 24.236 14.7416C24.236 10.0503 20.4329 6.24719 15.7416 6.24719C11.0503 6.24719 7.24719 10.0503 7.24719 14.7416C7.24719 17.7502 8.81138 20.3936 11.1709 21.9027C11.1619 21.7018 11.1545 21.5057 11.1488 21.3164C11.1339 20.8169 11.1308 20.3393 11.15 19.9303L11.1504 19.9211C9.72103 18.6531 8.82022 16.8025 8.82022 14.7416C8.82022 10.919 11.919 7.82022 15.7416 7.82022C19.5641 7.82022 22.6629 10.919 22.6629 14.7416Z" fill="white"/>
<path d="M15.7416 17.8876C14.6405 17.8876 13.1461 18.3858 12.8315 19.2247C12.5955 19.8539 12.747 22.2917 12.9102 24.4944C12.9222 24.6567 12.9333 24.8264 12.9447 25.0013C13.0831 27.1152 13.2718 30 15.7416 30C18.2113 30 18.4001 27.1153 18.5384 25.0014C18.5499 24.8264 18.561 24.6567 18.573 24.4944C18.7361 22.2917 18.8876 19.8539 18.6517 19.2247C18.3371 18.3858 16.8427 17.8876 15.7416 17.8876Z" fill="white"/>
<path d="M15.7416 16.7865C17.3922 16.7865 18.7303 15.4484 18.7303 13.7978C18.7303 12.1471 17.3922 10.809 15.7416 10.809C14.0909 10.809 12.7528 12.1471 12.7528 13.7978C12.7528 15.4484 14.0909 16.7865 15.7416 16.7865Z" fill="white"/>
</svg>
