<svg width="32" height="32" viewBox="0 0 32 32" fill="none" xmlns="http://www.w3.org/2000/svg">
<path fill-rule="evenodd" clip-rule="evenodd" d="M16 24.931C17.5725 24.931 18.8473 23.6563 18.8473 22.0837C18.8473 20.5112 17.5725 19.2365 16 19.2365C14.4275 19.2365 13.1527 20.5112 13.1527 22.0837C13.1527 23.6563 14.4275 24.931 16 24.931ZM16 27.7783C19.145 27.7783 21.6946 25.2288 21.6946 22.0837C21.6946 18.9387 19.145 16.3892 16 16.3892C12.855 16.3892 10.3054 18.9387 10.3054 22.0837C10.3054 25.2288 12.855 27.7783 16 27.7783Z" fill="white"/>
<path fill-rule="evenodd" clip-rule="evenodd" d="M16 14.1113C13.5585 14.1113 11.3929 15.2915 10.0417 17.1198C9.48095 17.8786 8.41124 18.0391 7.65246 17.4783C6.89369 16.9175 6.73317 15.8478 7.29395 15.0891C9.26167 12.4266 12.4287 10.6946 16 10.6946C19.5713 10.6946 22.7383 12.4266 24.706 15.0891C25.2668 15.8478 25.1063 16.9175 24.3475 17.4783C23.5888 18.0391 22.5191 17.8786 21.9583 17.1198C20.607 15.2915 18.4415 14.1113 16 14.1113Z" fill="white" fill-opacity="0.8"/>
<path fill-rule="evenodd" clip-rule="evenodd" d="M16 8.41675C11.4726 8.41675 7.48076 10.7124 5.12578 14.2111C4.59893 14.9938 3.53732 15.2012 2.75461 14.6744C1.97189 14.1475 1.76447 13.0859 2.29132 12.3032C5.25412 7.90152 10.2879 5 16 5C21.7121 5 26.7459 7.90152 29.7087 12.3032C30.2355 13.0859 30.0281 14.1475 29.2454 14.6744C28.4627 15.2012 27.4011 14.9938 26.8742 14.2111C24.5192 10.7124 20.5274 8.41675 16 8.41675Z" fill="white" fill-opacity="0.6"/>
</svg>
